<svg width="41" height="41" viewBox="0 0 41 41" fill="none" xmlns="http://www.w3.org/2000/svg">
<circle cx="20.6097" cy="20.2229" r="19.9261" fill="#D9D9D9"/>
<circle cx="20.6097" cy="20.2229" r="19.9261" fill="url(#paint0_linear_1_149)"/>
<path d="M20.3138 25.8067H20.2967C20.2435 25.8067 14.9237 25.7964 13.5816 25.4319C13.2189 25.3342 12.8883 25.143 12.6228 24.8773C12.3573 24.6117 12.1662 24.2809 12.0687 23.9182C11.8274 22.5566 11.7108 21.1759 11.7205 19.7931C11.7143 18.4081 11.834 17.0253 12.0782 15.662C12.1784 15.2987 12.3703 14.9672 12.6356 14.6994C12.9008 14.4317 13.2304 14.2366 13.5927 14.1328C14.898 13.7898 20.0711 13.7898 20.2907 13.7898H20.3087C20.3627 13.7898 25.6962 13.8001 27.0246 14.1646C27.7613 14.3644 28.3368 14.9399 28.5358 15.6765C28.7845 17.0436 28.902 18.4303 28.8848 19.8197C28.8908 21.203 28.7708 22.5841 28.5263 23.9457C28.4276 24.308 28.2357 24.6381 27.9699 24.9034C27.7041 25.1686 27.3735 25.3597 27.0109 25.4576C25.7073 25.8032 20.5334 25.8067 20.3138 25.8067ZM18.5986 17.2245L18.5943 22.3702L23.0642 19.7974L18.5986 17.2245Z" fill="white"/>
<defs>
<linearGradient id="paint0_linear_1_149" x1="-4.26698" y1="5.09389" x2="32.8145" y2="40.559" gradientUnits="userSpaceOnUse">
<stop stop-color="#FF2801"/>
<stop offset="1" stop-color="#FF6500"/>
</linearGradient>
</defs>
</svg>
