<svg width="41" height="41" viewBox="0 0 41 41" fill="none" xmlns="http://www.w3.org/2000/svg">
<circle cx="20.6097" cy="20.5198" r="19.9261" fill="#D9D9D9"/>
<circle cx="20.6097" cy="20.5198" r="19.9261" fill="url(#paint0_linear_1_157)"/>
<path d="M26.9748 15.5342C27.7436 15.0746 28.3189 14.3509 28.5932 13.4982C27.8708 13.9269 27.0804 14.2288 26.2562 14.391C25.7003 13.803 24.9664 13.4141 24.1677 13.2843C23.369 13.1545 22.5498 13.2911 21.8364 13.6729C21.1229 14.0546 20.5548 14.6605 20.2197 15.397C19.8846 16.1335 19.801 16.9598 19.9819 17.7485C18.5187 17.6751 17.0873 17.2947 15.7806 16.6322C14.4739 15.9697 13.3211 15.0399 12.3971 13.903C11.9272 14.7135 11.7834 15.6725 11.9949 16.5852C12.2065 17.498 12.7575 18.2959 13.536 18.8171C12.9517 18.7983 12.3804 18.6401 11.8697 18.3557V18.402C11.8699 19.2519 12.164 20.0756 12.7021 20.7333C13.2403 21.3911 13.9894 21.8424 14.8225 22.0109C14.2805 22.1583 13.712 22.18 13.1604 22.0743C13.396 22.8053 13.854 23.4445 14.4703 23.9026C15.0867 24.3608 15.8307 24.6151 16.5986 24.63C15.2949 25.6533 13.6848 26.2082 12.0275 26.2055C11.7333 26.2055 11.44 26.1883 11.1484 26.1549C12.8314 27.2363 14.7902 27.8103 16.7907 27.8083C18.1685 27.8178 19.5345 27.5534 20.8093 27.0304C22.0841 26.5075 23.2423 25.7365 24.2165 24.7621C25.1908 23.7878 25.9617 22.6295 26.4846 21.3547C27.0074 20.0799 27.2717 18.7139 27.2621 17.336C27.2621 17.1765 27.2587 17.0178 27.251 16.86C27.9718 16.3391 28.5939 15.6938 29.088 14.9544C28.4165 15.2521 27.7042 15.4475 26.9748 15.5342Z" fill="white"/>
<defs>
<linearGradient id="paint0_linear_1_157" x1="-4.26698" y1="5.39077" x2="32.8145" y2="40.8559" gradientUnits="userSpaceOnUse">
<stop stop-color="#FF2801"/>
<stop offset="1" stop-color="#FF6500"/>
</linearGradient>
</defs>
</svg>
