<svg width="41" height="40" viewBox="0 0 41 40" fill="none" xmlns="http://www.w3.org/2000/svg">
<circle cx="20.6097" cy="19.9261" r="19.9261" fill="#D9D9D9"/>
<circle cx="20.6097" cy="19.9261" r="19.9261" fill="url(#paint0_linear_1_141)"/>
<path d="M20.6117 17.1885C19.1363 17.1885 17.9323 18.4187 17.9323 19.9262C17.9323 21.4336 19.1363 22.6638 20.6117 22.6638C22.087 22.6638 23.291 21.4336 23.291 19.9262C23.291 18.4187 22.087 17.1885 20.6117 17.1885ZM28.6478 19.9262C28.6478 18.7925 28.6578 17.6691 28.5955 16.5375C28.5332 15.2231 28.2397 14.0566 27.299 13.0955C26.3563 12.1323 25.2166 11.8345 23.9302 11.7708C22.8207 11.7071 21.7212 11.7174 20.6137 11.7174C19.5041 11.7174 18.4046 11.7071 17.2971 11.7708C16.0107 11.8345 14.869 12.1343 13.9283 13.0955C12.9856 14.0587 12.6941 15.2231 12.6318 16.5375C12.5695 17.6712 12.5796 18.7946 12.5796 19.9262C12.5796 21.0578 12.5695 22.1832 12.6318 23.3148C12.6941 24.6292 12.9876 25.7957 13.9283 26.7569C14.871 27.7201 16.0107 28.0179 17.2971 28.0815C18.4067 28.1452 19.5061 28.1349 20.6137 28.1349C21.7232 28.1349 22.8227 28.1452 23.9302 28.0815C25.2166 28.0179 26.3583 27.718 27.299 26.7569C28.2417 25.7937 28.5332 24.6292 28.5955 23.3148C28.6598 22.1832 28.6478 21.0598 28.6478 19.9262ZM20.6117 24.1384C18.3303 24.1384 16.4891 22.2571 16.4891 19.9262C16.4891 17.5952 18.3303 15.714 20.6117 15.714C22.8931 15.714 24.7342 17.5952 24.7342 19.9262C24.7342 22.2571 22.8931 24.1384 20.6117 24.1384ZM24.9031 16.5252C24.3704 16.5252 23.9403 16.0857 23.9403 15.5415C23.9403 14.9972 24.3704 14.5577 24.9031 14.5577C25.4357 14.5577 25.8659 14.9972 25.8659 15.5415C25.866 15.6707 25.8413 15.7987 25.7929 15.9181C25.7446 16.0375 25.6737 16.146 25.5842 16.2374C25.4948 16.3288 25.3886 16.4013 25.2717 16.4506C25.1548 16.5 25.0296 16.5253 24.9031 16.5252Z" fill="white"/>
<defs>
<linearGradient id="paint0_linear_1_141" x1="-4.26698" y1="4.79702" x2="32.8145" y2="40.2621" gradientUnits="userSpaceOnUse">
<stop stop-color="#FF2801"/>
<stop offset="1" stop-color="#FF6500"/>
</linearGradient>
</defs>
</svg>
