<svg width="41" height="41" viewBox="0 0 41 41" fill="none" xmlns="http://www.w3.org/2000/svg">
<circle cx="20.6097" cy="20.6683" r="19.9261" fill="#D9D9D9"/>
<circle cx="20.6097" cy="20.6683" r="19.9261" fill="url(#paint0_linear_1_161)"/>
<mask id="mask0_1_161" style="mask-type:alpha" maskUnits="userSpaceOnUse" x="11" y="11" width="18" height="18">
<path d="M13.688 15.2442C14.6353 15.2442 15.4032 14.4762 15.4032 13.5289C15.4032 12.5817 14.6353 11.8137 13.688 11.8137C12.7407 11.8137 11.9728 12.5817 11.9728 13.5289C11.9728 14.4762 12.7407 15.2442 13.688 15.2442Z" fill="white"/>
<path d="M11.9729 17.8169H15.4034V28.5371H11.9729V17.8169ZM18.8338 21.8906V28.5371H21.8355V22.5338C21.8355 21.4618 22.4787 20.6041 23.5507 20.6041C24.6227 20.6041 25.2659 21.6762 25.2659 22.5338V28.5371H28.2676V21.8906C28.2676 20.6041 26.7667 17.8169 23.5507 17.8169C20.3346 17.8169 18.8338 20.6041 18.8338 21.8906Z" fill="white"/>
</mask>
<g mask="url(#mask0_1_161)">
<path d="M9.82617 10.0986H30.4089V30.6814H9.82617V10.0986Z" fill="white"/>
</g>
<defs>
<linearGradient id="paint0_linear_1_161" x1="-4.26698" y1="5.5392" x2="32.8145" y2="41.0043" gradientUnits="userSpaceOnUse">
<stop stop-color="#FF2801"/>
<stop offset="1" stop-color="#FF6500"/>
</linearGradient>
</defs>
</svg>
