<svg width="41" height="40" viewBox="0 0 41 40" fill="none" xmlns="http://www.w3.org/2000/svg">
<circle cx="20.6097" cy="20.0745" r="19.9261" fill="#D9D9D9"/>
<circle cx="20.6097" cy="20.0745" r="19.9261" fill="url(#paint0_linear_1_145)"/>
<g clip-path="url(#clip0_1_145)">
<path d="M18.624 18.9249C18.624 18.9249 20.5711 18.7736 20.5711 16.3943C20.5711 14.0118 18.978 12.853 16.9588 12.853H10.3168V26.1556H16.9588C16.9588 26.1556 21.0146 26.2884 21.0146 22.2285C21.0136 22.2274 21.1906 18.9249 18.624 18.9249ZM13.2436 15.2159H16.9588C16.9588 15.2159 17.8624 15.2159 17.8624 16.5991C17.8624 17.9843 17.3314 18.185 16.7283 18.185H13.2436V15.2159ZM16.7705 23.7907H13.2436V20.235H16.9588C16.9588 20.235 18.3049 20.2165 18.3049 22.0617C18.3049 23.6178 17.2995 23.7794 16.7705 23.7907ZM26.4217 16.2358C21.5117 16.2358 21.5158 21.3475 21.5158 21.3475C21.5158 21.3475 21.1803 26.4325 26.4217 26.4325C26.4217 26.4325 30.7883 26.6939 30.7883 22.8953H28.5428C28.5428 22.8953 28.6169 24.3269 26.4969 24.3269C26.4969 24.3269 24.2492 24.4833 24.2492 22.0113H30.8594C30.8604 22.0103 31.589 16.2358 26.4217 16.2358ZM28.4193 20.235H24.2266C24.2266 20.235 24.5003 18.185 26.4722 18.185C28.444 18.185 28.4193 20.235 28.4193 20.235ZM28.941 13.6341H23.675V15.2746H28.941V13.6341Z" fill="white"/>
</g>
<defs>
<linearGradient id="paint0_linear_1_145" x1="-4.26698" y1="4.94545" x2="32.8145" y2="40.4106" gradientUnits="userSpaceOnUse">
<stop stop-color="#FF2801"/>
<stop offset="1" stop-color="#FF6500"/>
</linearGradient>
<clipPath id="clip0_1_145">
<rect width="20.5827" height="20.5827" fill="white" transform="translate(10.3168 9.35303)"/>
</clipPath>
</defs>
</svg>
