<svg width="20" height="19" viewBox="0 0 20 19" fill="none" xmlns="http://www.w3.org/2000/svg">
<g id="fluent:mail-16-filled">
<path id="Vector" d="M5.67895 3.57422C5.05029 3.57422 4.44738 3.82395 4.00286 4.26848C3.55833 4.71301 3.30859 5.31592 3.30859 5.94458V6.1828L10.4197 10.0121L17.5307 6.18398V5.94458C17.5307 5.31592 17.281 4.71301 16.8365 4.26848C16.3919 3.82395 15.789 3.57422 15.1604 3.57422H5.67895ZM17.5307 7.52916L10.7006 11.2068C10.6142 11.2532 10.5177 11.2776 10.4197 11.2776C10.3216 11.2776 10.2251 11.2532 10.1388 11.2068L3.30859 7.52916V13.0556C3.30859 13.6843 3.55833 14.2872 4.00286 14.7317C4.44738 15.1763 5.05029 15.426 5.67895 15.426H15.1604C15.789 15.426 16.3919 15.1763 16.8365 14.7317C17.281 14.2872 17.5307 13.6843 17.5307 13.0556V7.52916Z" fill="#B2B2B2"/>
</g>
</svg>
